<?xml version="1.0" encoding="UTF-8"?>
<svg id="Capa_1" xmlns="http://www.w3.org/2000/svg" version="1.1" viewBox="0 0 1290 1243">
  <!-- Generator: Adobe Illustrator 29.3.1, SVG Export Plug-In . SVG Version: 2.1.0 Build 151)  -->
  <path d="M293.2,621.4c20.2-302.3,340.2-400.9,304-110.7,6.5,1.9,13,8.2,17.5,11.9,1.3,1,2.6,2.1,3.9,3.2,17.5-89.4,2.3-191.3-96.8-208.8-189.1,17.1-322.9,309.1-179.1,454.7,88,71.7,179.1,140.2,277.9,196.2,1.2-4.4,2.7-8.5,4.6-12.6-.9-.8-1.7-1.6-2.6-2.5-124.9-90.1-309.6-157.2-329.5-331.4ZM615.9,455.6l-15-64.9c5.7,21.7,21.6,40.5,15,64.9Z"/>
  <path d="M793.7,584.4c101.5-212.1-12.8-199.1-147.5-65.1,0,.3-.2.6-.4.9-.3.8-.7,1.5-1.3,2.1-.4.5-.9.8-1.5,1.1-.6.5-1.3,1-2.1,1.2-.7.7-1.4,1.4-2.1,2.1.5-.6,1-1.3,1.5-1.9-.5,0-1.1.1-1.6.2-.2,0-.4,0-.6,0-.8.1-1.7,0-2.6-.2-6.5-1.7-13.3-2.3-18.5-6.2-.4.8-.9,1.5-1.3,2.3-114.1-167.3-270-92.8-112.4,73.4-290.8,50.5-118,205.6,72.5,103.4-29.8,218.4,149.6,227,136,6.5,68.8,3,158.3,0,208.2-46.6,20.6-63.6-81.7-61-126.3-73.1ZM660.9,543.4c21.9-50.4,88.3-91.4,140-110.1,25.5,59.3,4.5,152.6-77.8,161.1-62.2,29.5-96.7,6.5-62-50.9h-.1ZM644.5,618.8c1.3,6.2-2.4,12.9-10.5,12.5-1.2-1,5.6-14,10.5-12.5ZM499.6,563.2c-29.6-32.4-44.3-75-45.5-116.8,49.6-8.9,101,19.1,129.6,54.5,26.5,31.8,43.3,66.8,42.6,106-40.3,14.1-101-12.7-126.8-43.7ZM573.3,672.9h-.1c-10.2,11.5-21.9,22.2-36.8,28.6-59.1,25.3-115.1,7.9-172.2-11.1,27-81,158.7-87,235.5-59.3,17.8,3-24.2,30.6-26.3,41.7ZM655.4,843.6c-46,53.4-102-161.3-31.9-191.2,100-.4,84.2,142.9,31.9,191.2ZM899.7,651.4c-75.7,41.7-186.3,67.3-235.9-17.8,68.1-30.6,177.2-53.7,238.3,2.3h0c6.6,4.9,5.9,12.5-2.3,15.5Z"/>
  <path d="M636,194c-4.4-48.7,40.8-81.5,87.6-68,35.5,5.7,48.1-37.9,14.9-51.1-129.9-10.4-144.5,176-42.4,228.4,68.1,49,158.1,62.3,225.1,113.1,157.8,125.9,90.6,333-59.2,435.2-34.7,33.8-75.8,61.1-113.3,92.1-4.4,4.7-8.7,8-12.9,9.9-3.4,3.5-7,6.6-10.6,9.7-1.4,1.7-3,3.3-4.7,4.7.4.3.8.6,1.2.9-16.6,22.5-52.8,65.2-65.2,93-10.3,17-46.6,107.3-12.8,102.9,9.8-66.1,50.6-124.8,99.1-171,.1,0,.3.2.4.3,3.9-4,8.6-7,13.5-9.6-.4-.5-.8-.9-1.3-1.4,115-111.4,266-228.1,274.1-391l.4.2c-17.4-263.6-332.6-202.6-393.9-398.2ZM748.5,102.8c-16.6,21.3-51.9-4.4-75,9.4,12.1-32.8,53.4-36.7,75-9.4ZM667.6,1070.6c-1.7.6-1.7-2.9,0-2.2v2.2ZM670,1066.3c-1.7.6-1.7-2.9,0-2.2v2.2ZM683.8,1045.2s-2.4.4-2.3-.5c0-1.9,4.4-2,2.3.5ZM691.9,1029.7l12.7-15.5c.7,3-10.6,17.4-12.7,15.5ZM712.7,1005.2c31.8-47.3,75.5-79.9,121.2-114.1l-121.2,114.1ZM835.6,890v-1.1c.6.4.6.7,0,1.1ZM840.8,886.7h-2.3c-.7-1.6,2.9-1.6,2.3,0ZM842,884.5l13.8-11.1c-1.8,5.8-7.8,9.6-13.8,11.1Z"/>
</svg>